<svg xmlns="http://www.w3.org/2000/svg" viewBox="0 0 263.99 64.42"><defs><style>.cls-1{fill:#006837;stroke:#000;stroke-miterlimit:10;}</style></defs><title>Asset 1first</title><g id="Layer_2" data-name="Layer 2"><g id="Layer_1-2" data-name="Layer 1"><path class="cls-1" d="M31.52,98.37H6.37c-2.39,0-3.43-1-3.43-3.43V46.58a3.38,3.38,0,0,1,1-2.76l9.63-8.13A3.65,3.65,0,0,1,16,35H41.15c10-.7,19.77,4.86,19.11,16V74.27c0,5.45-1.57,9.4-4.7,12.09l-9.7,8.06C42.79,97,38,98.37,31.52,98.37Zm28-24.11V51c0-10.37-5.82-15.22-18.36-15.22H16c-1.87,0-2.69.82-2.69,2.69V86.8c0,1.87.82,2.69,2.69,2.69H41.15C53.69,89.49,59.51,84.64,59.51,74.27ZM21.45,42.47H39.51c10.15,0,11.94,4.63,11.94,10.37V72.63c0,5.75-1.64,10.15-11.94,10.15H21.45Zm.75.75V82H39.51c9.55,0,11.2-4,11.2-9.4V52.85c0-5.45-1.79-9.63-11.2-9.63ZM39.13,50c2.39,0,3.51,1.12,3.51,3.58V71.73c0,2.54-1.12,3.66-3.51,3.66H30.25V50ZM31,59.12V74.64h1.27V61.73C32.27,60.38,31.89,59.49,31,59.12Z" transform="translate(-2.44 -34.45)"/><path class="cls-1" d="M75.63,95.18a2.3,2.3,0,0,1-1.62.52H66c-1.67,0-2.4-.73-2.4-2.4V59.46a2.37,2.37,0,0,1,.73-1.93L71,51.83a2.55,2.55,0,0,1,1.67-.47H90.1c8.3,0,10.81,3.81,10.81,9.25V63c0,2.56-.57,4.49-2,5.69h-.05c3.29.94,5.43,3.71,5.43,7.83V87.61a2.37,2.37,0,0,1-.73,1.93l-6.79,5.64a2.31,2.31,0,0,1-1.62.52h-8.1c-1.67,0-2.4-.73-2.4-2.4v-8c0-1.15-.37-1.72-1.46-1.72h-.05v4a2.36,2.36,0,0,1-.73,1.93Zm7-7.57V77.37h7.31c1.46,0,2,.68,2,2.25v8c0,1.31.57,1.88,1.88,1.88h8.1c1.31,0,1.88-.57,1.88-1.88V76.54c0-4.39-2.51-7.16-6.32-7.57,2.19-.94,2.92-3,2.92-6v-2.4c0-5.17-2.46-8.72-10.29-8.72H72.71c-1.31,0-1.88.58-1.88,1.88V87.61c0,1.31.57,1.88,1.88,1.88h8C82.06,89.49,82.63,88.92,82.63,87.61Zm-6.16-2.82V56.59H88.38c4.07,0,6,2.51,6,6v3.6c0,3.19-.63,5.28-3.13,6.06h.57c4.28,0,6.32,1.93,6.32,5.59v7h-.52v-7c0-3.45-1.83-5.12-5.8-5.12H77V84.79ZM77,57.11V72.2H88.38c4.33,0,5.43-2.14,5.43-6V62.54c0-3.24-1.72-5.43-5.43-5.43Zm9.56,4.18c1.83,0,2.3,1,2.3,2.46v1.78c0,1.41-.47,2.45-2.3,2.45H82.63V61.29Z" transform="translate(-2.44 -34.45)"/><path class="cls-1" d="M109.17,95.71c-1.67,0-2.4-.73-2.4-2.4V87.09a2.37,2.37,0,0,1,.73-1.93l6.32-5.33V68.18h-4.65c-1.67,0-2.4-.73-2.4-2.4V59.46a2.36,2.36,0,0,1,.73-1.93l6.74-5.69a2.55,2.55,0,0,1,1.67-.47h22.25c1.67,0,2.4.73,2.4,2.4v6.32a2.37,2.37,0,0,1-.73,1.93l-6.21,5.22V79h4.54c1.67,0,2.4.73,2.4,2.4v6.22a2.36,2.36,0,0,1-.73,1.93L133,95.18a2.3,2.3,0,0,1-1.62.52Zm29-6.22c1.31,0,1.88-.57,1.88-1.88V81.4c0-1.31-.57-1.88-1.88-1.88h-5.07V62h5.07c1.31,0,1.88-.58,1.88-1.88V53.77c0-1.31-.57-1.88-1.88-1.88H115.91c-1.31,0-1.88.58-1.88,1.88v6.32c0,1.31.57,1.88,1.88,1.88h5.17V79.51h-5.17c-1.31,0-1.88.58-1.88,1.88v6.22c0,1.31.57,1.88,1.88,1.88Zm-19.43-4.7v-.52h8.1V57.11h-8.1v-.52h16.61v.52h-8V84.27h8v.52Z" transform="translate(-2.44 -34.45)"/><path class="cls-1" d="M149.44,93.67l-5.12-12.8c-1.31-3.24-1.72-4.23-1.72-7.63V59.46a2.36,2.36,0,0,1,.73-1.93l6.74-5.69a2.55,2.55,0,0,1,1.67-.47H160c1.67,0,2.56.78,2.56,2.4V68.18a7,7,0,0,0,.37,2l.16.37V59.46a2.37,2.37,0,0,1,.73-1.93l6.74-5.69a2.55,2.55,0,0,1,1.67-.47h8.2c1.72,0,2.4.73,2.4,2.4V67.55c0,3.39-.42,4.39-1.72,7.63L176,88a3.19,3.19,0,0,1-.94,1.41L168.35,95a3,3,0,0,1-2.19.73H152.58A2.91,2.91,0,0,1,149.44,93.67Zm26.12-5.9L180.68,75c1.25-3.13,1.67-4.13,1.67-7.42V53.77c0-1.31-.52-1.88-1.88-1.88h-8.2c-1.31,0-1.88.58-1.88,1.88V68.13a6.49,6.49,0,0,1-.42,2.14l-2.46,7.36c-.21.68-.42.89-1,.89h-.58c-.57,0-.78-.21-1-.89l-2.46-7.31a6.49,6.49,0,0,1-.42-2.14V53.77c0-1.31-.73-1.88-2-1.88h-8.3c-1.31,0-1.88.58-1.88,1.88V67.55c0,3.29.42,4.28,1.67,7.42l5.12,12.8a2.46,2.46,0,0,0,2.66,1.72H172.9A2.45,2.45,0,0,0,175.56,87.77ZM156.29,56.59V67.87a12.82,12.82,0,0,0,.83,4.86l3.45,8.36c.73,1.83,1.31,3.19,3.29,3.19h4.6c2,0,2.56-1.36,3.29-3.19l3.45-8.36a12.82,12.82,0,0,0,.84-4.86V56.59h.52V67.87a12.9,12.9,0,0,1-.84,5.07l-3.45,8.36c-.84,2-1.62,3.5-3.81,3.5h-4.6c-2.19,0-3-1.46-3.81-3.5l-3.45-8.36a12.9,12.9,0,0,1-.84-5.07V56.59Z" transform="translate(-2.44 -34.45)"/><path class="cls-1" d="M191.76,93.67l-5.12-12.8c-1.31-3.24-1.72-4.23-1.72-7.63V59.46a2.37,2.37,0,0,1,.73-1.93l6.74-5.69a2.55,2.55,0,0,1,1.67-.47h8.3c1.67,0,2.56.78,2.56,2.4V68.18a7,7,0,0,0,.37,2l.16.37V59.46a2.37,2.37,0,0,1,.73-1.93l6.74-5.69a2.55,2.55,0,0,1,1.67-.47h8.2c1.72,0,2.4.73,2.4,2.4V67.55c0,3.39-.42,4.39-1.72,7.63L218.34,88a3.19,3.19,0,0,1-.94,1.41L210.66,95a3,3,0,0,1-2.19.73H194.89A2.91,2.91,0,0,1,191.76,93.67Zm26.12-5.9L223,75c1.25-3.13,1.67-4.13,1.67-7.42V53.77c0-1.31-.52-1.88-1.88-1.88h-8.2c-1.31,0-1.88.58-1.88,1.88V68.13a6.47,6.47,0,0,1-.42,2.14l-2.46,7.36c-.21.68-.42.89-1,.89h-.57c-.58,0-.78-.21-1-.89l-2.46-7.31a6.46,6.46,0,0,1-.42-2.14V53.77c0-1.31-.73-1.88-2-1.88h-8.3c-1.31,0-1.88.58-1.88,1.88V67.55c0,3.29.42,4.28,1.67,7.42L199,87.77a2.45,2.45,0,0,0,2.66,1.72h13.58A2.46,2.46,0,0,0,217.87,87.77ZM198.6,56.59V67.87a12.82,12.82,0,0,0,.84,4.86l3.45,8.36c.73,1.83,1.31,3.19,3.29,3.19h4.6c2,0,2.56-1.36,3.29-3.19l3.45-8.36a12.82,12.82,0,0,0,.83-4.86V56.59h.52V67.87a12.9,12.9,0,0,1-.84,5.07l-3.45,8.36c-.83,2-1.62,3.5-3.81,3.5h-4.6c-2.19,0-3-1.46-3.81-3.5l-3.45-8.36a12.9,12.9,0,0,1-.84-5.07V56.59Z" transform="translate(-2.44 -34.45)"/><path class="cls-1" d="M235.74,95.71h-7.68c-1.67,0-2.4-.73-2.4-2.4V79.51c0-2.14.63-4.8,2.09-8.57l4.49-11.8a3.46,3.46,0,0,1,.89-1.41l.05-.05,6.69-5.59a3.2,3.2,0,0,1,2.3-.73h14a2.85,2.85,0,0,1,3.08,2l4.54,11.86c1.46,3.76,2.09,6.42,2.09,8.57V87.61a2.36,2.36,0,0,1-.73,1.93l-6.79,5.64a2.3,2.3,0,0,1-1.62.52H248.9c-1.78,0-2.56-.78-2.56-2.4V86.51h-1.46v1.1a2.36,2.36,0,0,1-.73,1.93l-6.79,5.64A2.3,2.3,0,0,1,235.74,95.71Zm8.62-15.41h9.25v7.31c0,1.31.63,1.88,2,1.88h7.89c1.31,0,1.88-.57,1.88-1.88V73.82c0-2.09-.63-4.7-2-8.36l-4.54-11.86a2.43,2.43,0,0,0-2.61-1.72h-14a2.46,2.46,0,0,0-2.66,1.72L235,65.46c-1.41,3.66-2,6.27-2,8.36V87.61c0,1.31.57,1.88,1.88,1.88h7.68c1.31,0,1.88-.57,1.88-1.88Zm15-4.49H239v9h-.52V73.67a13.9,13.9,0,0,1,.89-5.07L242.69,60c.78-1.93,1.41-3.45,3.81-3.45h5.12c2.3,0,2.92,1.46,3.76,3.5L259,68.6a13.92,13.92,0,0,1,.89,5.07V84.79h-.52ZM239,75.28h20.37V73.67a13.69,13.69,0,0,0-.84-4.86l-3.6-8.51c-.78-1.83-1.36-3.19-3.29-3.19H246.5c-2.09,0-2.66,1.36-3.34,3.13l-3.34,8.57a13.69,13.69,0,0,0-.84,4.86ZM248.33,62h1.31c.42,0,.73.26,1,.89l2.46,7.94h-8.2l2.46-7.94C247.59,62.23,247.91,62,248.33,62Z" transform="translate(-2.44 -34.45)"/></g></g></svg>